<?xml version="1.0" encoding="UTF-8"?>
<svg width="1086px" height="730px" viewBox="0 0 1086 730" version="1.1" xmlns="http://www.w3.org/2000/svg" xmlns:xlink="http://www.w3.org/1999/xlink">
    <!-- Generator: Sketch 43.2 (39069) - http://www.bohemiancoding.com/sketch -->
    <title>banner</title>
    <desc>Created with Sketch.</desc>
    <defs>
        <linearGradient x1="50.8487917%" y1="22.6368258%" x2="69.5362268%" y2="76.7074322%" id="linearGradient-1">
            <stop stop-color="#2CA3A4" offset="0%"></stop>
            <stop stop-color="#00BDBF" stop-opacity="0" offset="100%"></stop>
        </linearGradient>
        <linearGradient x1="37.5656009%" y1="20.2678953%" x2="37.5656009%" y2="72.7606189%" id="linearGradient-2">
            <stop stop-color="#50CCCD" offset="0%"></stop>
            <stop stop-color="#00BDBF" stop-opacity="0" offset="100%"></stop>
        </linearGradient>
        <linearGradient x1="37.5656009%" y1="20.2678953%" x2="37.5656009%" y2="72.7606189%" id="linearGradient-3">
            <stop stop-color="#45B9BA" offset="0%"></stop>
            <stop stop-color="#00BDBF" stop-opacity="0" offset="100%"></stop>
        </linearGradient>
        <filter x="-2.6%" y="-4.0%" width="105.1%" height="109.1%" filterUnits="objectBoundingBox" id="filter-4">
            <feOffset dx="0" dy="1" in="SourceAlpha" result="shadowOffsetOuter1"></feOffset>
            <feGaussianBlur stdDeviation="1" in="shadowOffsetOuter1" result="shadowBlurOuter1"></feGaussianBlur>
            <feColorMatrix values="0 0 0 0 0.778805272   0 0 0 0 0.778805272   0 0 0 0 0.778805272  0 0 0 0.5 0" type="matrix" in="shadowBlurOuter1" result="shadowMatrixOuter1"></feColorMatrix>
            <feMerge>
                <feMergeNode in="shadowMatrixOuter1"></feMergeNode>
                <feMergeNode in="SourceGraphic"></feMergeNode>
            </feMerge>
        </filter>
        <linearGradient x1="50%" y1="7.40838041%" x2="50%" y2="97.5535196%" id="linearGradient-5">
            <stop stop-color="#62DEDE" offset="0%"></stop>
            <stop stop-color="#69D1CF" offset="100%"></stop>
        </linearGradient>
        <linearGradient x1="50%" y1="11.0123175%" x2="50%" y2="97.5535196%" id="linearGradient-6">
            <stop stop-color="#3BC1C2" offset="0%"></stop>
            <stop stop-color="#44B3B1" offset="100%"></stop>
        </linearGradient>
        <linearGradient x1="50%" y1="0%" x2="50%" y2="100%" id="linearGradient-7">
            <stop stop-color="#FFE18C" offset="0%"></stop>
            <stop stop-color="#FDBE10" offset="100%"></stop>
        </linearGradient>
        <filter x="-1.9%" y="-3.1%" width="103.9%" height="107.1%" filterUnits="objectBoundingBox" id="filter-8">
            <feOffset dx="0" dy="1" in="SourceAlpha" result="shadowOffsetOuter1"></feOffset>
            <feGaussianBlur stdDeviation="1" in="shadowOffsetOuter1" result="shadowBlurOuter1"></feGaussianBlur>
            <feColorMatrix values="0 0 0 0 0.778805272   0 0 0 0 0.778805272   0 0 0 0 0.778805272  0 0 0 0.5 0" type="matrix" in="shadowBlurOuter1" result="shadowMatrixOuter1"></feColorMatrix>
            <feMerge>
                <feMergeNode in="shadowMatrixOuter1"></feMergeNode>
                <feMergeNode in="SourceGraphic"></feMergeNode>
            </feMerge>
        </filter>
        <linearGradient x1="50%" y1="0%" x2="50%" y2="100%" id="linearGradient-9">
            <stop stop-color="#FFB2A5" offset="0%"></stop>
            <stop stop-color="#EC8675" offset="100%"></stop>
        </linearGradient>
        <linearGradient x1="1.05475548e-30%" y1="100%" x2="100%" y2="2.22044605e-14%" id="linearGradient-10">
            <stop stop-color="#2CA3A4" offset="0%"></stop>
            <stop stop-color="#FFFFFF" stop-opacity="0.124801857" offset="100%"></stop>
        </linearGradient>
        <linearGradient x1="1.05475548e-30%" y1="100%" x2="100%" y2="2.22044605e-14%" id="linearGradient-11">
            <stop stop-color="#1CBBBC" offset="0%"></stop>
            <stop stop-color="#FFFFFF" stop-opacity="0.124801857" offset="100%"></stop>
        </linearGradient>
        <filter x="-6.1%" y="-2.1%" width="111.6%" height="108.4%" filterUnits="objectBoundingBox" id="filter-12">
            <feOffset dx="-1" dy="11" in="SourceAlpha" result="shadowOffsetOuter1"></feOffset>
            <feGaussianBlur stdDeviation="4.5" in="shadowOffsetOuter1" result="shadowBlurOuter1"></feGaussianBlur>
            <feColorMatrix values="0 0 0 0 0.163534024   0 0 0 0 0.608294256   0 0 0 0 0.65454932  0 0 0 0.659533514 0" type="matrix" in="shadowBlurOuter1" result="shadowMatrixOuter1"></feColorMatrix>
            <feMerge>
                <feMergeNode in="shadowMatrixOuter1"></feMergeNode>
                <feMergeNode in="SourceGraphic"></feMergeNode>
            </feMerge>
        </filter>
        <linearGradient x1="50%" y1="0%" x2="50%" y2="100%" id="linearGradient-13">
            <stop stop-color="#7D8383" offset="0%"></stop>
            <stop stop-color="#3B4545" offset="100%"></stop>
        </linearGradient>
        <linearGradient x1="50%" y1="5.06218112%" x2="50%" y2="100%" id="linearGradient-14">
            <stop stop-color="#C6C6C6" offset="0%"></stop>
            <stop stop-color="#393939" offset="100%"></stop>
        </linearGradient>
        <linearGradient x1="50%" y1="7.40838041%" x2="50%" y2="97.5535196%" id="linearGradient-15">
            <stop stop-color="#86E8E9" offset="0%"></stop>
            <stop stop-color="#57BDBB" offset="100%"></stop>
        </linearGradient>
        <linearGradient x1="50%" y1="0%" x2="50%" y2="99.3582589%" id="linearGradient-16">
            <stop stop-color="#FFFFFF" offset="0%"></stop>
            <stop stop-color="#F3F3F3" offset="100%"></stop>
        </linearGradient>
        <linearGradient x1="50%" y1="0%" x2="50%" y2="99.3164062%" id="linearGradient-17">
            <stop stop-color="#F2F2F2" offset="0%"></stop>
            <stop stop-color="#C8C8C8" offset="100%"></stop>
        </linearGradient>
    </defs>
    <g id="UI-0419" stroke="none" stroke-width="1" fill="none" fill-rule="evenodd">
        <g id="ui-home-" transform="translate(-127.000000, -117.000000)">
            <g id="bg">
                <g id="banner" transform="translate(127.000000, 116.000000)">
                    <g id="Group-Copy-3" transform="translate(421.000000, 213.000000)">
                        <polygon id="Path-9-Copy" fill="#38D9DB" opacity="0.309103261" points="0 78.826087 138.587234 158.652174 276 78.826087 138.587234 0"></polygon>
                        <polygon id="Path-11-Copy" fill="url(#linearGradient-1)" points="137.412766 159.826087 274.825532 78.826087 274.825532 340.619224 139.761702 404"></polygon>
                        <polygon id="Path-10-Copy" fill="url(#linearGradient-2)" points="1.17446809 78.826087 138.587234 158.652174 138.587234 402.837429 1.17446809 324.173913"></polygon>
                    </g>
                    <g id="Group" transform="translate(634.000000, 363.000000)">
                        <polygon id="Path-9-Copy" fill="#55CDC9" points="0 67.3469388 120.510638 136.734694 240 67.3469388 120.510638 0"></polygon>
                        <polygon id="Path-11-Copy" fill="url(#linearGradient-1)" points="119.489362 137.755102 238.978723 67.3469388 238.978723 294.907111 121.531915 350"></polygon>
                        <polygon id="Path-10-Copy" fill="url(#linearGradient-3)" points="1.0212766 67.3469388 120.510638 136.734694 120.510638 348.989451 1.0212766 280.612245"></polygon>
                    </g>
                    <g id="Page-1-Copy-6" filter="url(#filter-4)" transform="translate(758.000000, 426.000000) scale(-1, 1) translate(-758.000000, -426.000000) translate(690.000000, 382.000000)">
                        <polygon id="Fill-1" fill="#F3F4F4" points="90.470175 -0.000282469136 0.000425 52.0686657 45.237425 78.1052583 135.701508 26.0334854"></polygon>
                        <polygon id="Fill-2" fill="#CBCBCB" points="0 60.6151931 45.237 87.6178301 45.237 77.501198 0 51.4631931"></polygon>
                        <polygon id="Fill-3" fill="#E3E3E2" points="45.237 77.5019042 45.237 87.617124 135.7025 34.535524 135.7025 25.4301314"></polygon>
                        <polygon id="Fill-4" fill="url(#linearGradient-5)" points="17.3210167 46.0385146 88.1671 5.26550716 115.712767 21.4622874 45.16985 62.0672257"></polygon>
                        <polygon id="Fill-5" fill="#00ADAD" points="17.3210167 46.0385146 17.3210167 51.6723615 45.16985 68.2956701 45.16985 62.0672257"></polygon>
                        <polyline id="Fill-6" fill="#1BBCBC" points="45.16985 62.0679319 115.712767 21.4629936 115.479017 27.0403467 45.16985 68.294964"></polyline>
                        <g id="Group-39" transform="translate(4.250000, 1.464320)">
                            <path d="M125.739225,23.9652464 C125.739225,24.8352514 124.720642,25.5400119 123.464058,25.5400119 C122.207475,25.5400119 121.190308,24.8352514 121.190308,23.9652464 C121.190308,23.0952415 122.207475,22.390481 123.464058,22.390481 C124.720642,22.390481 125.739225,23.0952415 125.739225,23.9652464" id="Fill-7" fill="#CBCBCB"></path>
                            <path d="M88.494775,2.22613926 C88.494775,3.0961442 87.4761917,3.80090469 86.2196083,3.80090469 C84.963025,3.80090469 83.9458583,3.0961442 83.9458583,2.22613926 C83.9458583,1.35613432 84.963025,0.651373827 86.2196083,0.651373827 C87.4761917,0.651373827 88.494775,1.35613432 88.494775,2.22613926" id="Fill-9" fill="#CBCBCB"></path>
                            <path d="M43.1945917,71.4579121 C43.1945917,72.327917 42.1760083,73.0326775 40.919425,73.0326775 C39.6628417,73.0326775 38.645675,72.327917 38.645675,71.4579121 C38.645675,70.5879072 39.6628417,69.8831467 40.919425,69.8831467 C42.1760083,69.8831467 43.1945917,70.5879072 43.1945917,71.4579121" id="Fill-11" fill="#CBCBCB"></path>
                            <path d="M4.85194167,49.954243 C4.85194167,50.8242479 3.83335833,51.5290084 2.576775,51.5290084 C1.32019167,51.5290084 0.303025,50.8242479 0.303025,49.954243 C0.303025,49.084238 1.32019167,48.3794775 2.576775,48.3794775 C3.83335833,48.3794775 4.85194167,49.084238 4.85194167,49.954243" id="Fill-13" fill="#CBCBCB"></path>
                            <path d="M83.1909167,44.2558519 L83.1909167,39.7928395" id="Stroke-15" stroke="#3A4544" stroke-width="1.52999997" stroke-linecap="round"></path>
                            <path d="M87.4950333,41.7334025 L87.4950333,37.2703901" id="Stroke-17" stroke="#3A4544" stroke-width="1.52999997" stroke-linecap="round"></path>
                            <path d="M91.79915,39.2109531 L91.79915,34.7479407" id="Stroke-19" stroke="#3A4544" stroke-width="1.52999997" stroke-linecap="round"></path>
                            <path d="M96.1034083,36.6886449 L96.1034083,32.2256326" id="Stroke-21" stroke="#3A4544" stroke-width="1.52999997" stroke-linecap="round"></path>
                            <path d="M70.2785667,51.8230588 L70.2785667,47.3600464" id="Stroke-23" stroke="#3A4544" stroke-width="1.52999997" stroke-linecap="round"></path>
                            <path d="M74.5826833,49.3006094 L74.5826833,44.837597" id="Stroke-25" stroke="#3A4544" stroke-width="1.52999997" stroke-linecap="round"></path>
                            <path d="M78.8868,46.77816 L78.8868,42.3151477" id="Stroke-27" stroke="#3A4544" stroke-width="1.52999997" stroke-linecap="round"></path>
                            <path d="M100.407525,34.1661956 L100.407525,29.7031832" id="Stroke-29" stroke="#3A4544" stroke-width="1.52999997" stroke-linecap="round"></path>
                            <path d="M104.711642,31.6437462 L104.711642,27.1807338" id="Stroke-31" stroke="#3A4544" stroke-width="1.52999997" stroke-linecap="round"></path>
                            <path d="M109.015758,29.121438 L109.015758,24.6584257" id="Stroke-33" stroke="#3A4544" stroke-width="1.52999997" stroke-linecap="round"></path>
                            <path d="M65.9743083,54.3455081 L65.9743083,49.8824958" id="Stroke-35" stroke="#3A4544" stroke-width="1.52999997" stroke-linecap="round"></path>
                            <polygon id="Fill-37" fill="url(#linearGradient-6)" points="23.576875 43.7863881 81.9024583 10.2191684 100.780958 21.1478993 42.5134583 54.6868721"></polygon>
                        </g>
                    </g>
                    <g id="Group-4" transform="translate(220.000000, 332.000000)">
                        <polygon id="Path-9" fill="#2FC4C6" points="0 63 118 131 235 63 117.5 0.578022131"></polygon>
                        <g id="Page-1-Copy-2" transform="translate(117.500000, 62.000000) scale(-1, 1) translate(-117.500000, -62.000000) translate(43.000000, 16.000000)">
                            <polygon id="Fill-1" fill="#F3F4F4" points="77.9921875 0 0.000171264368 43.2338775 68.9871713 81.1291711 148.460689 37.6656893"></polygon>
                            <polygon id="Fill-2" fill="#CBCBCB" points="0 54.1851366 68.987 91.8588107 68.987 81.1298229 0 43.2345294"></polygon>
                            <polygon id="Fill-3" fill="#E3E3E2" points="68.9875138 81.129497 68.9875138 91.8584848 148.406226 47.9468755 148.461031 37.6660152"></polygon>
                            <g id="Group-24" transform="translate(41.718930, 4.224015)">
                                <path d="M0.0633678161,32.0513846 L0.0633678161,39.770585 C0.0633678161,46.1372551 6.76836782,56.8760202 25.9568276,56.8760202 C45.1452874,56.8760202 51.7235517,44.4881457 51.7235517,41.4522854 C51.7235517,38.4180547 51.8485747,32.0513846 51.8485747,32.0513846 L0.0633678161,32.0513846 Z" id="Fill-4" fill="#E7AE21"></path>
                                <path d="M51.8489172,33.8378654 C51.8489172,43.2860233 40.2560322,50.9433006 25.9554575,50.9433006 C11.6565954,50.9433006 0.0637103448,43.2860233 0.0637103448,33.8378654 C0.0637103448,24.3897075 11.6565954,16.7324302 25.9554575,16.7324302 C40.2560322,16.7324302 51.8489172,24.3897075 51.8489172,33.8378654" id="Fill-6" fill="url(#linearGradient-7)"></path>
                                <path d="M99.0271555,33.1571538 C99.0271555,34.3760607 97.5320175,35.3635709 95.6875003,35.3635709 C93.842983,35.3635709 92.3478451,34.3760607 92.3478451,33.1571538 C92.3478451,31.938247 93.842983,30.9507368 95.6875003,30.9507368 C97.5320175,30.9507368 99.0271555,31.938247 99.0271555,33.1571538" id="Fill-8" fill="#CBCBCB"></path>
                                <path d="M36.8561348,4.43718421 C35.0116175,4.43718421 33.5164796,3.44967409 33.5164796,2.23076721 C33.5164796,1.01186032 35.0116175,0.0243502024 36.8561348,0.0243502024 C38.700652,0.0243502024 40.1957899,1.01186032 40.1957899,2.23076721 C40.1957899,3.44967409 38.700652,4.43718421 36.8561348,4.43718421 Z" id="Fill-10" fill="#CBCBCB"></path>
                                <path d="M58.8637773,12.5931518 C58.8637773,13.8120587 57.0055589,14.7995688 54.712329,14.7995688 C52.4208118,14.7995688 50.5625934,13.8120587 50.5625934,12.5931518 C50.5625934,11.3742449 52.4208118,10.3867348 54.712329,10.3867348 C57.0055589,10.3867348 58.8637773,11.3742449 58.8637773,12.5931518" id="Fill-12" fill="#E3E3E2"></path>
                                <path d="M68.246667,17.8375476 C68.246667,19.0564545 66.3884486,20.0439646 64.0952187,20.0439646 C61.8037014,20.0439646 59.945483,19.0564545 59.945483,17.8375476 C59.945483,16.6186407 61.8037014,15.6311306 64.0952187,15.6311306 C66.3884486,15.6311306 68.246667,16.6186407 68.246667,17.8375476" id="Fill-14" fill="#E3E3E2"></path>
                                <path d="M77.6293853,23.3496791 C77.6293853,24.568586 75.771167,25.5560962 73.4779371,25.5560962 C71.1864198,25.5560962 69.3282014,24.568586 69.3282014,23.3496791 C69.3282014,22.1307723 71.1864198,21.1432621 73.4779371,21.1432621 C75.771167,21.1432621 77.6293853,22.1307723 77.6293853,23.3496791" id="Fill-16" fill="#E3E3E2"></path>
                                <path d="M54.7131853,12.0850567 L70.6476221,3.33108907" id="Stroke-18" stroke="#3A4544" stroke-width="2" stroke-linecap="round"></path>
                                <path d="M64.0959037,17.3802945 L80.0303405,8.62632692" id="Stroke-20" stroke="#3A4544" stroke-width="2" stroke-linecap="round"></path>
                                <path d="M73.4787934,22.6755324 L89.4132302,13.9215648" id="Stroke-22" stroke="#3A4544" stroke-width="2" stroke-linecap="round"></path>
                            </g>
                        </g>
                        <polygon id="Path-11" fill="url(#linearGradient-1)" points="117 132 234 63 234 286.008968 119 340"></polygon>
                        <polygon id="Path-10" fill="url(#linearGradient-3)" points="1 63 118 131 118 339.009662 1 272"></polygon>
                    </g>
                    <g id="Group-Copy-2" transform="translate(0.000000, 440.000000)">
                        <polygon id="Path-9-Copy" fill="#2FC4C6" points="0 67 118 135 235 67 117.5 0"></polygon>
                        <polygon id="Path-11-Copy" fill="url(#linearGradient-1)" points="117 136 234 67 234 290.008968 119 344"></polygon>
                        <polygon id="Path-10-Copy" fill="url(#linearGradient-3)" points="1 67 118 135 118 343.009662 1 276"></polygon>
                    </g>
                    <g id="Page-1-Copy-8" filter="url(#filter-8)" transform="translate(559.316474, 290.985780) scale(-1, 1) rotate(1.000000) translate(-559.316474, -290.985780) translate(468.816474, 234.985780)">
                        <polygon id="Fill-1" fill="#F3F4F4" points="128.057509 6.32687285 115.179474 14.0897326 106.526441 9.30924278 119.406154 1.54638307"></polygon>
                        <polygon id="Fill-2" fill="#E3E3E2" points="128.057509 6.32687285 128.166574 13.8053787 115.288539 21.5682384 115.179474 14.0897326"></polygon>
                        <polygon id="Fill-3" fill="#CBCBCA" points="115.179138 14.0904016 115.288203 21.5689075 106.636848 16.7867451 106.527783 9.30991185"></polygon>
                        <polygon id="Fill-4" fill="#E3E3E2" points="73.3173861 9.86373276 73.4264509 17.3422386 65.0083268 22.4171183 64.899262 14.9386124"></polygon>
                        <polygon id="Fill-5" fill="#F3F4F4" points="73.3173861 9.86373276 64.899262 14.9386124 51.7141675 7.65246352 60.1322916 2.57758389"></polygon>
                        <polygon id="Fill-6" fill="#CBCBCA" points="64.899262 14.9384451 65.0083268 22.416951 51.8232323 15.1308021 51.7141675 7.65229626"></polygon>
                        <polygon id="Fill-7" fill="#F3F4F4" points="152.482989 19.823644 139.604954 27.5865037 130.951921 22.806014 143.831634 15.0431542"></polygon>
                        <polygon id="Fill-8" fill="#CBCBCA" points="139.604618 27.5871728 139.713683 35.0656787 131.062328 30.2835162 130.953263 22.806683"></polygon>
                        <polygon id="Fill-9" fill="#E3E3E2" points="152.482989 19.823644 152.592054 27.3021499 139.714018 35.0650096 139.604954 27.5865037"></polygon>
                        <polygon id="Fill-10" fill="#E3E3E2" points="49.5365631 24.199515 49.6456279 31.6780209 41.2275038 36.7529005 41.118439 29.2743947"></polygon>
                        <polygon id="Fill-11" fill="#F3F4F4" points="49.5365631 24.199515 41.118439 29.2743947 27.9333445 21.9882458 36.3514686 16.9133662"></polygon>
                        <polygon id="Fill-12" fill="#CBCBCA" points="41.118439 29.2742274 41.2275038 36.7527333 28.0424093 29.4665844 27.9333445 21.9880785"></polygon>
                        <polygon id="Fill-13" fill="#F3F4F4" points="176.908301 33.3205825 164.030266 41.0834422 155.377233 36.3029524 168.256946 28.5400927"></polygon>
                        <polygon id="Fill-14" fill="#CBCBCA" points="164.02993 41.0841113 164.138995 48.5626171 155.48764 43.7804547 155.378575 36.3036215"></polygon>
                        <polygon id="Fill-15" fill="#E3E3E2" points="176.908301 33.3205825 177.017366 40.7990884 164.13933 48.5619481 164.030266 41.0834422"></polygon>
                        <polygon id="Fill-16" fill="#E3E3E2" points="25.7557401 38.5354646 25.8648049 46.0139704 17.4466808 51.0888501 17.337616 43.6103442"></polygon>
                        <polygon id="Fill-17" fill="#F3F4F4" points="25.7557401 38.5354646 17.337616 43.6103442 4.15252152 36.3241953 12.5706456 31.2493157"></polygon>
                        <polygon id="Fill-18" fill="#CBCBCA" points="17.337616 43.6101769 17.4466808 51.0886828 4.26158632 43.8025339 4.15252152 36.3240281"></polygon>
                        <polygon id="Fill-19" fill="#CBCBCA" points="151.948907 50.8969949 152.057972 58.3755008 90.1762862 24.179443 90.0672214 16.7026098"></polygon>
                        <polygon id="Fill-20" fill="#E3E3E2" points="90.0665502 16.7022752 90.175615 24.1807811 29.9215118 60.5044747 29.8107691 53.0259688"></polygon>
                        <polygon id="Fill-21" fill="#E3E3E2" points="164.514346 60.2579231 164.625088 67.7347564 180.986485 57.8726963 180.875742 50.3925177"></polygon>
                        <polygon id="Fill-22" fill="#CBCBCA" points="0.993166166 61.0076137 17.8394819 70.3176928 17.7304171 62.8391869 0.882423453 53.5307805"></polygon>
                        <polygon id="Fill-23" fill="#E3E3E2" points="164.515017 60.2572541 164.624082 67.73576 156.205957 72.8106396 156.096893 65.3321337"></polygon>
                        <polygon id="Fill-24" fill="#CBCBCA" points="26.3824432 67.6200112 26.491508 75.0985171 17.840153 70.3163547 17.7310882 62.8395214"></polygon>
                        <polygon id="Fill-25" fill="#D5634F" points="91.3285138 71.4515955 91.4375786 78.9301014 57.2331816 60.0289347 57.1241168 52.5504288"></polygon>
                        <polygon id="Fill-26" fill="#E96B58" points="124.636734 51.3723676 124.745798 58.8508735 91.4374108 78.9295996 91.328346 71.4510937"></polygon>
                        <polygon id="Fill-27" fill="url(#linearGradient-9)" points="124.636734 51.3723676 91.328346 71.4510937 57.123949 52.5515997 90.4323368 32.4712008"></polygon>
                        <polygon id="Fill-28" fill="#E3E3E2" points="156.096893 65.3317992 156.205957 72.8103051 140.844601 82.0702041 140.733858 74.5933709"></polygon>
                        <polygon id="Fill-29" fill="#CBCBCA" points="42.1557291 76.3359581 42.2647939 83.814464 26.4923469 75.0981826 26.3832821 67.6196767"></polygon>
                        <polygon id="Fill-30" fill="#E3E3E2" points="140.734194 74.5930363 140.843259 82.0715422 132.425134 87.1464219 132.31607 79.667916"></polygon>
                        <polygon id="Fill-31" fill="#CBCBCA" points="50.8077552 81.1167824 50.91682 88.5952883 42.2654651 83.8131258 42.1564003 76.3362926"></polygon>
                        <polygon id="Fill-32" fill="#E3E3E2" points="132.31607 79.6677487 132.425134 87.1462546 117.063778 96.4061536 116.953035 88.9293204"></polygon>
                        <polygon id="Fill-33" fill="#CBCBCA" points="66.5810411 89.8327293 66.6901059 97.3112352 50.917659 88.5949538 50.8085942 81.1164479"></polygon>
                        <polygon id="Fill-34" fill="#E3E3E2" points="116.953371 88.9289859 117.062436 96.4074918 108.644311 101.482371 108.535247 94.0038655"></polygon>
                        <polygon id="Fill-35" fill="#CBCBCA" points="75.233235 94.6137209 75.3422998 102.092227 66.6909449 97.3100643 66.5818801 89.8332311"></polygon>
                        <polygon id="Fill-36" fill="#E3E3E2" points="92.0810608 103.923633 92.1901256 111.400466 108.645486 101.481535 108.534743 94.0030292"></polygon>
                        <path d="M89.6799575,-0.000334533924 L73.3185606,9.86339823 L64.8987586,14.9382779 L49.5357241,24.1981769 L41.119278,29.2730565 L25.7562435,38.5346282 L17.3364415,43.6095079 L0.882759037,53.5301114 L17.7307526,62.8401905 L26.3837855,67.6190076 L42.1562325,76.335289 L50.8075874,81.1174515 L66.5817123,89.8337329 L75.2330672,94.6142227 L92.0810608,103.924302 L108.534743,94.0036982 L116.952867,88.9288186 L132.315902,79.6672469 L140.734026,74.5923673 L156.09706,65.3307956 L164.515185,60.2575886 L180.876581,50.3938559 L164.030266,41.0837767 L155.378911,36.303287 L139.604786,27.5870055 L130.951753,22.8065158 L115.179306,14.0902344 L106.526273,9.30974458 L89.6799575,-0.000334533924 Z M29.8117758,53.0266378 L90.0658791,16.7029443 L151.949242,50.8973294 L91.6951393,87.2210229 L29.8117758,53.0266378 Z" id="Fill-37" fill="#F3F4F4"></path>
                        <polygon id="Fill-38" fill="#CBCBCA" points="75.3428032 102.091558 92.1891189 111.401637 92.081732 103.923131 75.2320605 94.6147245"></polygon>
                        <polygon id="Fill-39" fill="#F3F4F4" points="26.3824432 67.6200112 13.5966936 75.3276728 4.94366075 70.5471831 17.7310882 62.8395214"></polygon>
                        <polygon id="Fill-40" fill="#E3E3E2" points="26.3824432 67.6200112 26.491508 75.0985171 13.7057584 82.8061787 13.5966936 75.3276728"></polygon>
                        <polygon id="Fill-41" fill="#CBCBCA" points="13.5965258 75.3278401 13.7055906 82.806346 5.05423567 78.0241835 4.94517088 70.5473503"></polygon>
                        <polygon id="Fill-42" fill="#F3F4F4" points="50.8077552 81.1169497 38.0220057 88.8246113 29.3689728 84.0441215 42.1564003 76.3364599"></polygon>
                        <polygon id="Fill-43" fill="#E3E3E2" points="50.8077552 81.1169497 50.91682 88.5954556 38.1310704 96.3031172 38.0220057 88.8246113"></polygon>
                        <polygon id="Fill-44" fill="#CBCBCA" points="38.0218379 88.8246113 38.1309027 96.3031172 29.4795477 91.5209547 29.3704829 84.0441215"></polygon>
                        <polygon id="Fill-45" fill="#F3F4F4" points="75.233235 94.6137209 62.4474855 102.321382 53.7944526 97.5408927 66.5818801 89.8332311"></polygon>
                        <polygon id="Fill-46" fill="#E3E3E2" points="62.4478211 102.321884 62.5568859 109.798717 75.3426354 102.091056 75.2318927 94.6142227"></polygon>
                        <polygon id="Fill-47" fill="#CBCBCA" points="53.9050275 105.01806 62.5563825 109.79855 62.4473177 102.321717 53.7942848 97.5412272"></polygon>
                        <polygon id="Fill-48" fill="#F3F4F4" points="177.70095 67.543403 169.282826 72.6182826 156.097732 65.3321337 164.515856 60.2572541"></polygon>
                        <polygon id="Fill-49" fill="#E3E3E2" points="177.70095 67.543403 177.810015 75.0219088 169.391891 80.0967885 169.282826 72.6182826"></polygon>
                        <polygon id="Fill-50" fill="#CBCBCA" points="169.282826 72.6181153 169.391891 80.0966212 156.206796 72.8104723 156.097732 65.3319664"></polygon>
                        <polygon id="Fill-51" fill="#F3F4F4" points="153.920127 81.8793525 145.502003 86.9542321 132.316909 79.6680832 140.735033 74.5932036"></polygon>
                        <polygon id="Fill-52" fill="#E3E3E2" points="153.920127 81.8793525 154.029192 89.3578584 145.611068 94.432738 145.502003 86.9542321"></polygon>
                        <polygon id="Fill-53" fill="#CBCBCA" points="145.502003 86.9538976 145.611068 94.4324035 132.425973 87.1462546 132.316909 79.6677487"></polygon>
                        <polygon id="Fill-54" fill="#F3F4F4" points="130.139304 96.2151348 121.72118 101.290014 108.536086 94.0038655 116.95421 88.9289859"></polygon>
                        <polygon id="Fill-55" fill="#E3E3E2" points="130.139304 96.2151348 130.248369 103.693641 121.830245 108.76852 121.72118 101.290014"></polygon>
                        <polygon id="Fill-56" fill="#CBCBCA" points="121.72118 101.289847 121.830245 108.768353 108.64515 101.482204 108.536086 94.0036982"></polygon>
                    </g>
                    <polyline id="Path-4" stroke="url(#linearGradient-10)" stroke-width="5" opacity="0.5" stroke-linecap="round" stroke-linejoin="round" points="1059 433 1083 450 891 558 839 516"></polyline>
                    <polyline id="Path-5" stroke="url(#linearGradient-11)" stroke-width="5" opacity="0.5" stroke-linecap="round" stroke-linejoin="round" points="275 378 216 345 638 103 752 169"></polyline>
                    <g id="Group-31" transform="translate(738.000000, 0.000000)">
                        <g id="Group-Copy" filter="url(#filter-12)" transform="translate(164.500000, 238.500000) scale(-1, 1) translate(-164.500000, -238.500000) ">
                            <path d="M179.09727,450.586943 L180.78157,452.272882" id="Line" stroke="#979797" stroke-width="1.10000002" stroke-linecap="square"></path>
                            <polygon id="Fill-1" fill="#F8F9F9" points="16.663457 188.170408 16.663457 260.292666 16.663457 476.658316 328.653146 296.354919 328.653146 10.868134"></polygon>
                            <polygon id="Fill-2" fill="url(#linearGradient-13)" points="16.663457 189.271325 16.663457 255.885624 328.653146 75.5855985 328.653146 10.9690514"></polygon>
                            <path d="M248.303695,96.6224041 C248.303695,102.336616 245.116999,106.969579 241.186964,106.969579 C237.25693,106.969579 234.070234,102.336616 234.070234,96.6224041 C234.070234,90.908192 237.25693,86.2752294 241.186964,86.2752294 C245.116999,86.2752294 248.303695,90.908192 248.303695,96.6224041" id="Fill-3" fill="#EC8675"></path>
                            <path d="M278.012725,79.0077252 C278.012725,84.7219373 274.826029,89.3548999 270.895995,89.3548999 C266.96596,89.3548999 263.779264,84.7219373 263.779264,79.0077252 C263.779264,73.2935131 266.96596,68.6605505 270.895995,68.6605505 C274.826029,68.6605505 278.012725,73.2935131 278.012725,79.0077252" id="Fill-5" fill="#57DBDC"></path>
                            <path d="M308.82209,60.2921289 C308.82209,66.0063409 305.635393,70.6393036 301.705359,70.6393036 C297.775325,70.6393036 294.588629,66.0063409 294.588629,60.2921289 C294.588629,54.5779168 297.775325,49.9449541 301.705359,49.9449541 C305.635393,49.9449541 308.82209,54.5779168 308.82209,60.2921289" id="Fill-7" fill="#FFD970"></path>
                            <path d="M270.682274,256.397509 C270.682274,254.781355 269.548377,254.145575 268.167106,254.96707 L213.779382,287.313518 C212.390293,288.139662 211.264214,290.119185 211.264214,291.729666 L211.264214,307.880452 C211.264214,309.493279 212.398112,310.130519 213.779382,309.31409 L268.167106,277.167069 C269.556195,276.346018 270.682274,274.374052 270.682274,272.754119 L270.682274,256.397509 Z" id="Fill-9-Copy-2" fill="url(#linearGradient-14)" opacity="0.166440217"></path>
                            <path d="M271.782609,140.813898 C271.782609,139.20211 270.641889,138.558718 269.251128,139.367313 L201.255653,178.900216 C200.098551,179.57296 199.160535,181.194388 199.160535,182.53641 L199.160535,197.748074 C199.160535,199.362325 200.301254,200.030091 201.713226,199.236861 L269.229917,161.306751 C270.63973,160.514735 271.782609,158.563721 271.782609,156.954278 L271.782609,140.813898 Z" id="Fill-9-Copy-4" fill="url(#linearGradient-7)"></path>
                            <path d="M271.782609,180.453702 C271.782609,178.836619 270.64574,178.188623 269.255005,178.999562 L173.079443,235.079635 C171.683486,235.893619 170.551839,237.861024 170.551839,239.473221 L170.551839,256.143937 C170.551839,257.756463 171.688708,258.396556 173.079443,257.580468 L269.255005,201.144334 C270.650962,200.325181 271.782609,198.342746 271.782609,196.73314 L271.782609,180.453702 Z" id="Fill-9-Copy-5" fill="url(#linearGradient-14)" opacity="0.166440217"></path>
                            <path d="M271.782609,216.791688 C271.782609,215.170965 270.6413,214.520509 269.250997,215.328638 L151.076763,284.018773 C149.678592,284.831476 148.545151,286.798325 148.545151,288.415666 L148.545151,305.662837 C148.545151,307.278471 149.667246,307.926876 151.06271,307.104436 L269.265049,237.439889 C270.655459,236.620427 271.782609,234.639909 271.782609,233.021544 L271.782609,216.791688 Z" id="Fill-9-Copy-3" fill="url(#linearGradient-15)"></path>
                            <path d="M269.58194,293.856019 C269.58194,292.238363 268.44566,291.584425 267.046509,292.393948 L239.107337,308.559044 C237.707057,309.36922 236.571906,311.33266 236.571906,312.948305 L236.571906,328.772168 C236.571906,330.386114 237.708186,331.041648 239.107337,330.237794 L267.046509,314.185897 C268.446789,313.381394 269.58194,311.414488 269.58194,309.800191 L269.58194,293.856019 Z" id="Fill-9-Copy-7" fill="url(#linearGradient-7)"></path>
                            <path d="M192.558528,302.655536 C192.558528,301.038453 191.421659,300.390458 190.030925,301.201397 L93.8553628,357.28147 C92.4594059,358.095454 91.3277592,360.058386 91.3277592,361.674185 L91.3277592,379.44756 C91.3277592,381.059606 92.4473142,381.697293 93.84272,380.863288 L190.043568,323.366101 C191.432542,322.53594 192.558528,320.544581 192.558528,318.934974 L192.558528,302.655536 Z" id="Fill-9-Copy-8" fill="url(#linearGradient-14)" opacity="0.166440217"></path>
                            <path d="M223.367893,320.263641 C223.367893,318.648815 222.239391,317.997394 220.830201,318.818623 L152.183177,358.823868 C150.781648,359.640633 149.645485,361.614161 149.645485,363.226619 L149.645485,379.397234 C149.645485,381.012041 150.773987,381.663451 152.183177,380.842226 L220.830201,340.837224 C222.231729,340.020464 223.367893,338.046924 223.367893,336.434447 L223.367893,320.263641 Z" id="Fill-9-Copy-9" fill="url(#linearGradient-15)"></path>
                            <g id="Group-19" transform="translate(0.000000, 0.782276)" fill="url(#linearGradient-16)">
                                <polygon id="Fill-17" points="328.653146 10.0856331 16.663457 187.387907 0.000112286689 174.61635 312.494983 0.318641348"></polygon>
                            </g>
                            <polygon id="Fill-20" fill="url(#linearGradient-17)" points="0 175.398964 16.6633447 188.17052 16.6633447 476.658429 0 466.090958"></polygon>
                        </g>
                        <g id="Page-1" opacity="0.300000012" transform="translate(265.180602, 257.917431)">
                            <path d="M4.97324448,17.6958303 C5.13640836,18.0135275 5.34578629,18.3190596 5.60326455,18.6124266 C5.86027124,18.9324633 6.16207726,19.1954174 6.50868261,19.4022248 C6.96893679,19.6876376 7.40891338,19.7858945 7.8281408,19.6969954 C8.03185987,19.6516101 8.19172274,19.5266835 8.30678629,19.3208119 C8.42703712,19.1289771 8.48739833,18.8342064 8.48739833,18.4360321 L8.48739833,10.5062339 L10.2246692,11.5416743 L10.2246692,19.6422523 C10.2034485,20.8119771 9.82619097,21.5002431 9.09289666,21.7079862 C8.36478963,21.9349128 7.5192612,21.7664725 6.55536823,21.2026651 C5.21374615,20.3707569 4.2041107,19.260922 3.52787659,17.8736284 L4.97324448,17.6958303 Z" id="Fill-1" fill="#221F20"></path>
                            <path d="M13.7424542,22.5435908 C14.655889,23.8583615 15.7428622,24.8966092 17.0029023,25.6588018 C18.4935411,26.5258018 19.2499425,26.4308202 19.2711632,25.373389 C19.2815378,24.5031138 18.7830863,23.6786917 17.7758087,22.9005908 C17.3136682,22.5609028 16.8072,22.1861229 16.256404,21.7771872 C15.2698756,21.0224807 14.5196047,20.2013339 14.0060629,19.3142147 C13.4760161,18.4013615 13.2105211,17.5170495 13.2105211,16.6617468 C13.2105211,15.6347284 13.5434508,15.0049486 14.2088388,14.7724073 C14.8534776,14.5328477 15.7683271,14.7607101 16.9529157,15.4559945 C18.3784776,16.3384349 19.6177686,17.4819578 20.6712602,18.8870312 L19.7031231,19.7727468 C18.8420328,18.6783523 17.8946448,17.8118202 16.8604876,17.1736183 C16.3257251,16.8549853 15.8791465,16.7258477 15.5221666,16.7876092 C15.1496247,16.8503064 14.9581666,17.1609853 14.947792,17.719178 C14.947792,18.0583982 15.0760595,18.4411321 15.3330662,18.8687835 C15.5905445,19.3020495 16.0022268,19.7409303 16.5690562,20.1863615 C16.8835946,20.4277927 17.3136682,20.7459578 17.8592769,21.1413248 C18.935404,21.9334624 19.7300027,22.8023339 20.2444876,23.7488752 C20.7533137,24.6818477 21.007491,25.564756 21.007491,26.3980679 C20.9499592,28.6121229 19.6078656,28.951811 16.9821532,27.4185358 C15.2840227,26.406022 13.8240361,25.0014165 12.6026649,23.2037835 L13.7424542,22.5435908 Z" id="Fill-3" fill="#221F20"></path>
                            <path d="M21.5806395,36.6435936 L4.70826823,26.5848963 C2.24854916,25.1180615 0.235880268,21.9214376 0.235880268,19.4809239 L0.235880268,2.74029083 C0.235880268,0.299777064 2.24854916,-0.497507339 4.70826823,0.969327523 L21.5806395,11.0280248 C24.0403585,12.4943917 26.0530274,15.6910156 26.0530274,18.1315294 L26.0530274,34.8726303 C26.0530274,37.313144 24.0403585,38.1099606 21.5806395,36.6435936 Z" id="Stroke-5" stroke="#221F20" stroke-width="1.08900002"></path>
                        </g>
                        <path d="M17.8031412,265.931868 C16.4785089,265.153736 15.4046823,265.768286 15.4046823,267.312056 L15.4046823,281.642073 C15.4046823,283.182461 16.4760771,285.060565 17.8031412,285.840125 L37.2135812,297.242444 C38.5382135,298.020576 39.6120401,297.406026 39.6120401,295.862256 L39.6120401,281.532239 C39.6120401,279.991851 38.5406453,278.113747 37.2135812,277.334187 L17.8031412,265.931868 Z" id="Path-6-Copy-3" fill="url(#linearGradient-14)" opacity="0.166440217"></path>
                        <path d="M17.8031412,152.537373 C16.4785089,151.759241 15.4046823,152.373791 15.4046823,153.91756 L15.4046823,168.247577 C15.4046823,169.787966 16.4760771,171.666069 17.8031412,172.445629 L37.2135812,183.847949 C38.5382135,184.62608 39.6120401,184.01153 39.6120401,182.467761 L39.6120401,168.137744 C39.6120401,166.597355 38.5406453,164.719252 37.2135812,163.939692 L17.8031412,152.537373 Z" id="Path-6-Copy-5" fill="url(#linearGradient-14)" opacity="0.166440217"></path>
                        <path d="M176.232859,247.253438 C174.918412,246.460803 173.852843,247.064249 173.852843,248.595853 L173.852843,265.32769 C173.852843,266.86172 174.902911,268.757417 176.218385,269.57436 L209.999006,290.552991 C211.305459,291.364332 212.364548,290.78652 212.364548,289.250063 L212.364548,271.813499 C212.364548,270.282571 211.29433,268.396148 209.984532,267.606315 L176.232859,247.253438 Z" id="Path-6-Copy-10" fill="url(#linearGradient-9)"></path>
                        <path d="M17.8031412,188.867648 C16.4785089,188.089516 15.4046823,188.704066 15.4046823,190.247836 L15.4046823,204.577852 C15.4046823,206.118241 16.4760771,207.996344 17.8031412,208.775905 L37.2135812,220.178224 C38.5382135,220.956356 39.6120401,220.341805 39.6120401,218.798036 L39.6120401,204.468019 C39.6120401,202.927631 38.5406453,201.049527 37.2135812,200.269967 L17.8031412,188.867648 Z" id="Path-6-Copy-6" fill="url(#linearGradient-14)" opacity="0.166440217"></path>
                        <path d="M17.8031412,227.399758 C16.4785089,226.621626 15.4046823,227.236176 15.4046823,228.779946 L15.4046823,243.109962 C15.4046823,244.650351 16.4760771,246.528454 17.8031412,247.308015 L37.2135812,258.710334 C38.5382135,259.488466 39.6120401,258.873915 39.6120401,257.330146 L39.6120401,243.000129 C39.6120401,241.459741 38.5406453,239.581637 37.2135812,238.802077 L17.8031412,227.399758 Z" id="Path-6-Copy-4" fill="url(#linearGradient-14)" opacity="0.166440217"></path>
                        <path d="M17.8031412,114.005262 C16.4785089,113.227131 15.4046823,113.841681 15.4046823,115.38545 L15.4046823,129.715467 C15.4046823,131.255856 16.4760771,133.133959 17.8031412,133.913519 L37.2135812,145.315838 C38.5382135,146.09397 39.6120401,145.47942 39.6120401,143.935651 L39.6120401,129.605634 C39.6120401,128.065245 38.5406453,126.187142 37.2135812,125.407582 L17.8031412,114.005262 Z" id="Path-6-Copy-7" fill="url(#linearGradient-14)" opacity="0.166440217"></path>
                        <path d="M153.160609,193.27561 C151.826958,192.51898 150.745819,193.157898 150.745819,194.686813 L150.745819,210.150136 C150.745819,211.686152 151.820151,213.56847 153.138611,214.350381 L229.777777,259.801142 C231.099279,260.584857 232.170569,259.977191 232.170569,258.43146 L232.170569,240.889641 C232.170569,239.349472 231.081095,237.482818 229.755779,236.730917 L153.160609,193.27561 Z" id="Path-6-Copy-9" fill="url(#linearGradient-14)" opacity="0.166440217"></path>
                    </g>
                    <polyline id="Path-7" stroke="url(#linearGradient-11)" stroke-width="5" opacity="0.5" stroke-linecap="round" stroke-linejoin="round" points="492 256 453 234 637 128 739 187"></polyline>
                </g>
            </g>
        </g>
    </g>
</svg>